{
  "accessors": [
    {
      "bufferView": 2,
      "componentType": 5126,
      "count": 1067,
      "max": [
        1.2092089653015137,
        40.014686584472656,
        14.185016632080078
      ],
      "min": [
        -24.905698776245117,
        0.0,
        -24.814647674560547
      ],
      "type": "VEC3"
    },
    {
      "bufferView": 2,
      "byteOffset": 12804,
      "componentType": 5126,
      "count": 1067,
      "max": [
        0.9998694658279419,
        1.0,
        0.9999716877937317
      ],
      "min": [
        -0.9997877478599548,
        -0.989102303981781,
        -0.9991414546966553
      ],
      "type": "VEC3"
    },
    {
      "bufferView": 3,
      "componentType": 5126,
      "count": 1067,
      "max": [
        0.9995679259300232,
        0.9993830919265747,
        0.9999346137046814,
        1.0
      ],
      "min": [
        -0.9998654723167419,
        -0.9940026998519897,
        -0.9998296499252319,
        -1.0
      ],
      "type": "VEC4"
    },
    {
      "bufferView": 1,
      "componentType": 5126,
      "count": 1067,
      "max": [
        0.738673210144043,
        2.67165470123291
      ],
      "min": [
        -0.043291687965393066,
        -2.2826690673828125
      ],
      "type": "VEC2"
    },
    {
      "bufferView": 0,
      "componentType": 5125,
      "count": 5163,
      "type": "SCALAR"
    },
    {
      "bufferView": 2,
      "byteOffset": 25608,
      "componentType": 5126,
      "count": 5280,
      "max": [
        10.110258102416992,
        50.97572708129883,
        20.079479217529297
      ],
      "min": [
        -33.79840087890625,
        8.816902160644531,
        -30.936859130859375
      ],
      "type": "VEC3"
    },
    {
      "bufferView": 2,
      "byteOffset": 88968,
      "componentType": 5126,
      "count": 5280,
      "max": [
        0.9203501343727112,
        0.9994704127311707,
        0.9238796234130859
      ],
      "min": [
        -0.9238796234130859,
        0.3826831877231598,
        -0.9238796234130859
      ],
      "type": "VEC3"
    },
    {
      "bufferView": 3,
      "byteOffset": 17072,
      "componentType": 5126,
      "count": 5280,
      "max": [
        0.9992328882217407,
        0.9238793849945068,
        0.999778151512146,
        1.0
      ],
      "min": [
        -0.9998987913131714,
        -0.9238791465759277,
        -0.9999797940254211,
        -1.0
      ],
      "type": "VEC4"
    },
    {
      "bufferView": 1,
      "byteOffset": 8536,
      "componentType": 5126,
      "count": 5280,
      "max": [
        0.9313636422157288,
        0.9852825999259949
      ],
      "min": [
        0.014571905136108398,
        0.014571905136108398
      ],
      "type": "VEC2"
    },
    {
      "bufferView": 1,
      "byteOffset": 50776,
      "componentType": 5126,
      "count": 5280,
      "max": [
        0.9313636422157288,
        0.9852825999259949
      ],
      "min": [
        0.014571905136108398,
        0.014571905136108398
      ],
      "type": "VEC2"
    },
    {
      "bufferView": 0,
      "byteOffset": 20652,
      "componentType": 5125,
      "count": 19956,
      "type": "SCALAR"
    }
  ],
  "asset": {
    "extras": {
      "author": "Daniyal Malik (https://sketchfab.com/daniyalmalik)",
      "license": "CC-BY-4.0 (http://creativecommons.org/licenses/by/4.0/)",
      "source": "https://sketchfab.com/3d-models/tree-cb3003a0129846a8802ebd973bda0286",
      "title": "Tree"
    },
    "generator": "Sketchfab-12.68.0",
    "version": "2.0"
  },
  "bufferViews": [
    {
      "buffer": 0,
      "byteLength": 100476,
      "name": "floatBufferViews",
      "target": 34963
    },
    {
      "buffer": 0,
      "byteLength": 93016,
      "byteOffset": 100476,
      "byteStride": 8,
      "name": "floatBufferViews",
      "target": 34962
    },
    {
      "buffer": 0,
      "byteLength": 152328,
      "byteOffset": 193492,
      "byteStride": 12,
      "name": "floatBufferViews",
      "target": 34962
    },
    {
      "buffer": 0,
      "byteLength": 101552,
      "byteOffset": 345820,
      "byteStride": 16,
      "name": "floatBufferViews",
      "target": 34962
    }
  ],
  "buffers": [
    {
      "byteLength": 447372,
      "uri": "scene.bin"
    }
  ],
  "images": [
    {
      "uri": "textures/Tree_Trunk_Mat_baseColor.jpeg"
    },
    {
      "uri": "textures/Tree_Trunk_Mat_metallicRoughness.png"
    },
    {
      "uri": "textures/Tree_Trunk_Mat_normal.png"
    },
    {
      "uri": "textures/Tree_Leaves_Mat_baseColor.png"
    },
    {
      "uri": "textures/Tree_Leaves_Mat_metallicRoughness.png"
    },
    {
      "uri": "textures/Tree_Leaves_Mat_normal.png"
    }
  ],
  "materials": [
    {
      "name": "Tree_Trunk_Mat",
      "normalTexture": {
        "index": 2
      },
      "occlusionTexture": {
        "index": 1
      },
      "pbrMetallicRoughness": {
        "baseColorTexture": {
          "index": 0
        },
        "metallicRoughnessTexture": {
          "index": 1
        }
      }
    },
    {
      "alphaMode": "BLEND",
      "doubleSided": true,
      "name": "Tree_Leaves_Mat",
      "normalTexture": {
        "index": 5
      },
      "occlusionTexture": {
        "index": 4
      },
      "pbrMetallicRoughness": {
        "baseColorTexture": {
          "index": 3
        },
        "metallicRoughnessTexture": {
          "index": 4
        }
      }
    }
  ],
  "meshes": [
    {
      "name": "Tree_Mesh_Tree_Trunk_Mat_0",
      "primitives": [
        {
          "attributes": {
            "NORMAL": 1,
            "POSITION": 0,
            "TANGENT": 2,
            "TEXCOORD_0": 3
          },
          "indices": 4,
          "material": 0,
          "mode": 4
        }
      ]
    },
    {
      "name": "Tree_Mesh_Tree_Leaves_Mat_0",
      "primitives": [
        {
          "attributes": {
            "NORMAL": 6,
            "POSITION": 5,
            "TANGENT": 7,
            "TEXCOORD_0": 8,
            "TEXCOORD_1": 9
          },
          "indices": 10,
          "material": 1,
          "mode": 4
        }
      ]
    }
  ],
  "nodes": [
    {
      "children": [
        1
      ],
      "matrix": [
        1.0,
        0.0,
        0.0,
        0.0,
        0.0,
        2.220446049250313e-16,
        -1.0,
        0.0,
        0.0,
        1.0,
        2.220446049250313e-16,
        0.0,
        0.0,
        0.0,
        0.0,
        1.0
      ],
      "name": "Sketchfab_model"
    },
    {
      "children": [
        2
      ],
      "matrix": [
        1.0,
        0.0,
        0.0,
        0.0,
        0.0,
        0.0,
        1.0,
        0.0,
        0.0,
        -1.0,
        0.0,
        0.0,
        0.0,
        0.0,
        0.0,
        1.0
      ],
      "name": "Tree.fbx"
    },
    {
      "children": [
        3
      ],
      "name": "RootNode"
    },
    {
      "children": [
        4,
        5
      ],
      "matrix": [
        21.108564376831055,
        0.0,
        0.0,
        0.0,
        0.0,
        21.108564376831055,
        0.0,
        0.0,
        0.0,
        0.0,
        21.108564376831055,
        0.0,
        48.9095458984375,
        0.4557664394378662,
        0.070621557533741,
        1.0
      ],
      "name": "Tree_Mesh"
    },
    {
      "mesh": 0,
      "name": "Tree_Mesh_Tree_Trunk_Mat_0"
    },
    {
      "mesh": 1,
      "name": "Tree_Mesh_Tree_Leaves_Mat_0"
    }
  ],
  "samplers": [
    {
      "magFilter": 9729,
      "minFilter": 9987,
      "wrapS": 10497,
      "wrapT": 10497
    }
  ],
  "scene": 0,
  "scenes": [
    {
      "name": "Sketchfab_Scene",
      "nodes": [
        0
      ]
    }
  ],
  "textures": [
    {
      "sampler": 0,
      "source": 0
    },
    {
      "sampler": 0,
      "source": 1
    },
    {
      "sampler": 0,
      "source": 2
    },
    {
      "sampler": 0,
      "source": 3
    },
    {
      "sampler": 0,
      "source": 4
    },
    {
      "sampler": 0,
      "source": 5
    }
  ]
}
